<svg width="17" height="17" xmlns="http://www.w3.org/2000/svg"><path d="M8.666.889c-4.417 0-8 3.672-8 8.203 0 3.623 2.293 6.698 5.472 7.783.4.075.546-.178.546-.396 0-.194-.007-.71-.01-1.395-2.226.496-2.696-1.1-2.696-1.1-.363-.947-.888-1.199-.888-1.199-.726-.509.055-.499.055-.499.803.058 1.225.846 1.225.846.714 1.253 1.873.891 2.329.681.072-.53.28-.891.508-1.097-1.777-.207-3.644-.91-3.644-4.053 0-.896.311-1.628.823-2.202-.082-.207-.357-1.04.078-2.17 0 0 .672-.22 2.2.84a7.502 7.502 0 0 1 2.003-.276 7.51 7.51 0 0 1 2.003.277c1.527-1.062 2.198-.841 2.198-.841.436 1.13.162 1.963.08 2.17.512.574.822 1.306.822 2.202 0 3.15-1.87 3.844-3.653 4.047.287.254.543.754.543 1.52 0 1.096-.01 1.98-.01 2.25 0 .219.144.474.55.394 3.177-1.087 5.467-4.16 5.467-7.782 0-4.53-3.582-8.203-8-8.203" fill="#64738B" fill-rule="evenodd"/></svg>