<?xml version="1.0" encoding="UTF-8"?>
<svg width="27px" height="20px" viewBox="0 0 27 20" version="1.1" xmlns="http://www.w3.org/2000/svg" xmlns:xlink="http://www.w3.org/1999/xlink">
    <!-- Generator: Sketch 43.2 (39069) - http://www.bohemiancoding.com/sketch -->
    <title>Group 2</title>
    <desc>Created with Sketch.</desc>
    <defs></defs>
    <g id="Desing" stroke="none" stroke-width="1" fill="none" fill-rule="evenodd">
        <g id="1-4-Homepage-" transform="translate(-401.000000, -2920.000000)">
            <g id="Section03" transform="translate(375.000000, 2846.000000)">
                <g id="Symbols--Copy-2" transform="translate(0.000000, 43.000000)">
                    <g id="Group-2" transform="translate(25.000000, 24.000000)">
                        <g id="ic_trending_up">
                            <polygon id="Bounds" points="0 0 30 0 30 30 0 30"></polygon>
                            <path d="M20.3898908,7.5 C19.8392443,7.5 19.7055993,7.81727462 20.0903332,8.20758444 L22.2144643,10.3625 L16.9031261,15.7508141 C16.5156879,16.1438674 15.8933029,16.1497276 15.495463,15.7461219 L11.9791798,12.1788781 C11.5891872,11.7832334 10.9587543,11.7817665 10.5717661,12.174893 L2.84412672,20.025107 C2.45682623,20.4185508 2.46150867,21.0607697 2.84949227,21.4543762 L3.17354344,21.7831238 C3.56380725,22.1790436 4.1978404,22.1777344 4.58903679,21.7808685 L10.5641775,15.7191315 C10.9556691,15.3219662 11.5813399,15.3127724 11.9791798,15.7163781 L15.495463,19.2836219 C15.8854557,19.6792666 16.5155205,19.6820427 16.9041681,19.2883884 L23.9641071,12.1375 L26.0882382,14.2924156 C26.4734436,14.6832037 26.7857143,14.5533013 26.7857143,14.0040579 L26.7857143,8.49594209 C26.7857143,7.94589846 26.345397,7.5 25.7886807,7.5 L20.3898908,7.5 Z" id="Icon" fill="#13209A"></path>
                        </g>
                        <rect id="Rectangle" fill="#3C67FE" x="1" y="25" width="27" height="2" rx="1"></rect>
                    </g>
                </g>
            </g>
        </g>
    </g>
</svg>